<svg width="366" height="131" viewBox="0 0 366 131" fill="none" xmlns="http://www.w3.org/2000/svg">
<path d="M34.428 0.427998V8.384H22.188V50H13.824V8.384H1.856V0.427998H34.428ZM50.2741 28.784C49.0048 28.784 47.7808 28.9427 46.6021 29.26C45.4688 29.5773 44.4488 30.076 43.5421 30.756C42.6808 31.3907 41.9781 32.2067 41.4341 33.204C40.8901 34.156 40.6181 35.2893 40.6181 36.604V50H34.0901V21.1H39.8021C39.8928 22.732 39.9835 24.0693 40.0741 25.112C40.2101 26.1093 40.3235 27.2427 40.4141 28.512C41.0035 27.2427 41.7968 26.1093 42.7941 25.112C43.7915 24.1147 44.8115 23.276 45.8541 22.596C46.9421 21.8707 48.0075 21.3267 49.0501 20.964C50.0928 20.556 50.9768 20.352 51.7021 20.352L50.2741 28.784ZM64.433 63.872H57.905C58.585 62.512 59.2197 61.1973 59.809 59.928C60.3983 58.704 60.9877 57.4347 61.577 56.12C62.1663 54.8507 62.7783 53.536 63.413 52.176C64.0477 50.816 64.7503 49.3427 65.521 47.756C64.4783 45.716 63.3903 43.5627 62.257 41.296C61.169 39.0293 60.0583 36.74 58.925 34.428C57.7917 32.116 56.6583 29.8267 55.525 27.56C54.437 25.2933 53.3943 23.14 52.397 21.1H59.469C61.1917 24.4547 62.597 27.2653 63.685 29.532C64.773 31.7987 65.657 33.7027 66.337 35.244C67.017 36.7853 67.5383 38.0547 67.901 39.052C68.2637 40.004 68.5583 40.888 68.785 41.704C69.057 40.888 69.3743 40.004 69.737 39.052C70.0997 38.0547 70.621 36.7853 71.301 35.244C71.981 33.7027 72.865 31.7987 73.953 29.532C75.041 27.2653 76.4463 24.4547 78.169 21.1H85.173L64.433 63.872ZM105.052 0.427998H113.416V50H105.052V0.427998ZM124.465 8.452H130.925V21.1H138.473V26.948H130.925V50H124.465V26.948H119.569V21.1H124.465V8.452ZM150.435 44.016L144.451 58.296H138.195C139.102 55.8933 139.986 53.5133 140.847 51.156C141.709 48.844 142.593 46.464 143.499 44.016H150.435ZM175.974 50V0.427998H189.982C192.702 0.427998 195.172 0.790664 197.394 1.516C199.66 2.24133 201.564 3.284 203.106 4.644C204.692 6.004 205.916 7.68133 206.778 9.676C207.639 11.6707 208.07 13.9147 208.07 16.408C208.07 17.768 207.934 19.128 207.662 20.488C207.39 21.848 206.959 23.1627 206.37 24.432C205.78 25.7013 205.01 26.88 204.058 27.968C203.106 29.0107 201.972 29.9173 200.658 30.688C201.655 32.2747 202.63 33.8387 203.582 35.38C204.534 36.876 205.486 38.3947 206.438 39.936C207.435 41.4773 208.455 43.064 209.498 44.696C210.54 46.328 211.674 48.096 212.898 50H202.902C200.862 46.8267 198.935 43.8347 197.122 41.024C195.308 38.168 193.563 35.4707 191.886 32.932H191.206H184.27V50H175.974ZM184.27 25.112H190.934C192.656 25.112 194.084 24.8173 195.218 24.228C196.351 23.6387 197.258 22.936 197.938 22.12C198.618 21.2587 199.094 20.352 199.366 19.4C199.638 18.4027 199.774 17.496 199.774 16.68C199.774 15.9093 199.638 15.048 199.366 14.096C199.139 13.0987 198.686 12.1693 198.006 11.308C197.371 10.4467 196.487 9.72133 195.354 9.132C194.22 8.54267 192.77 8.248 191.002 8.248H184.27V25.112ZM240 46.668C238.595 47.9373 236.895 48.9347 234.9 49.66C232.905 50.3853 230.865 50.748 228.78 50.748C226.649 50.748 224.632 50.3627 222.728 49.592C220.869 48.776 219.237 47.688 217.832 46.328C216.472 44.9227 215.384 43.3133 214.568 41.5C213.752 39.6413 213.344 37.6693 213.344 35.584C213.344 33.4987 213.752 31.5493 214.568 29.736C215.384 27.8773 216.472 26.268 217.832 24.908C219.237 23.5027 220.847 22.4147 222.66 21.644C224.519 20.828 226.468 20.42 228.508 20.42C231.772 20.42 234.628 21.4173 237.076 23.412C239.569 25.3613 241.337 27.9453 242.38 31.164C241.02 31.6627 239.433 32.2747 237.62 33C235.852 33.68 233.993 34.4053 232.044 35.176C230.095 35.9467 228.145 36.74 226.196 37.556C224.247 38.3267 222.456 39.0293 220.824 39.664C221.595 41.0693 222.66 42.2027 224.02 43.064C225.38 43.9253 226.921 44.356 228.644 44.356C229.823 44.356 231.001 44.152 232.18 43.744C233.404 43.2907 234.401 42.7013 235.172 41.976L240 46.668ZM234.288 29.668C233.744 28.6707 232.928 27.9453 231.84 27.492C230.752 26.9933 229.687 26.744 228.644 26.744C227.42 26.744 226.264 26.9933 225.176 27.492C224.088 27.9453 223.159 28.58 222.388 29.396C221.617 30.1667 221.005 31.0733 220.552 32.116C220.099 33.1133 219.872 34.156 219.872 35.244V35.516C221.005 35.0627 222.207 34.5867 223.476 34.088C224.791 33.544 226.083 33 227.352 32.456C228.667 31.912 229.913 31.4133 231.092 30.96C232.271 30.4613 233.336 30.0307 234.288 29.668ZM247.387 21.1H253.099C253.19 22.732 253.28 24.0693 253.371 25.112C253.507 26.1093 253.62 27.2427 253.711 28.512C254.754 26.064 256.227 24.092 258.131 22.596C260.035 21.1 262.415 20.352 265.271 20.352C268.218 20.352 270.552 21.168 272.275 22.8C274.043 24.3867 274.972 26.472 275.063 29.056V50H268.603V32.116C268.512 30.7107 268.014 29.5093 267.107 28.512C266.2 27.4693 264.795 26.9027 262.891 26.812C261.576 26.812 260.352 27.0613 259.219 27.56C258.131 28.0133 257.179 28.648 256.363 29.464C255.592 30.28 254.98 31.2547 254.527 32.388C254.119 33.5213 253.915 34.7453 253.915 36.06V50H247.387V21.1ZM285.566 8.452H292.026V21.1H299.574V26.948H292.026V50H285.566V26.948H280.67V21.1H285.566V8.452ZM320.341 0.427998H328.705V50H320.341V0.427998ZM339.754 8.452H346.214V21.1H353.762V26.948H346.214V50H339.754V26.948H334.858V21.1H339.754V8.452ZM365.725 44.016L359.741 58.296H353.485C354.391 55.8933 355.275 53.5133 356.137 51.156C356.998 48.844 357.882 46.464 358.789 44.016H365.725Z" fill="#EB8382"/>
<path d="M28.812 85.096L26.26 90.896C24.636 90.316 23.0313 89.852 21.446 89.504C19.8607 89.156 18.3913 88.982 17.038 88.982C14.6793 88.982 12.804 89.446 11.412 90.374C10.0587 91.302 9.382 92.4813 9.382 93.912C9.382 95.1493 9.88467 96.1547 10.89 96.928C11.934 97.7013 13.2293 98.3973 14.776 99.016C16.3227 99.6347 17.9853 100.273 19.764 100.93C21.5813 101.549 23.2633 102.361 24.81 103.366C26.3567 104.371 27.6327 105.647 28.638 107.194C29.682 108.741 30.204 110.713 30.204 113.11C30.204 114.966 29.856 116.648 29.16 118.156C28.5027 119.664 27.4973 120.959 26.144 122.042C24.7907 123.125 23.07 123.975 20.982 124.594C18.9327 125.174 16.516 125.464 13.732 125.464C12.0307 125.464 10.484 125.348 9.092 125.116C7.7 124.884 6.44333 124.594 5.322 124.246C4.23933 123.898 3.27267 123.531 2.422 123.144C1.57133 122.719 0.836667 122.313 0.218 121.926L3.292 115.72C4.916 116.609 6.656 117.305 8.512 117.808C10.368 118.272 12.0113 118.504 13.442 118.504C14.138 118.504 15.0273 118.427 16.11 118.272C17.2313 118.117 18.314 117.827 19.358 117.402C20.402 116.977 21.2913 116.397 22.026 115.662C22.7993 114.927 23.186 113.98 23.186 112.82C23.186 111.467 22.664 110.365 21.62 109.514C20.6147 108.625 19.3387 107.851 17.792 107.194C16.2453 106.498 14.5633 105.821 12.746 105.164C10.9673 104.507 9.30467 103.733 7.758 102.844C6.21133 101.916 4.916 100.795 3.872 99.48C2.86667 98.1267 2.364 96.4253 2.364 94.376C2.364 92.9067 2.654 91.476 3.234 90.084C3.814 88.6533 4.684 87.3773 5.844 86.256C7.04267 85.1347 8.512 84.226 10.252 83.53C12.0307 82.834 14.1187 82.486 16.516 82.486C18.024 82.486 19.474 82.6213 20.866 82.892C22.2967 83.124 23.5727 83.3947 24.694 83.704C25.8153 84.0133 26.7433 84.3227 27.478 84.632C28.2127 84.9027 28.6573 85.0573 28.812 85.096ZM33.9908 112.936C33.9908 111.157 34.3388 109.475 35.0348 107.89C35.7308 106.266 36.6588 104.855 37.8188 103.656C39.0174 102.457 40.3901 101.51 41.9368 100.814C43.5221 100.079 45.1848 99.712 46.9248 99.712C48.0848 99.712 49.1288 99.8667 50.0568 100.176C50.9848 100.447 51.7774 100.775 52.4348 101.162C53.1308 101.549 53.6721 101.955 54.0588 102.38C54.4454 102.767 54.6968 103.076 54.8128 103.308L55.0448 100.35H60.4388V125H54.8128V123.376C54.8128 123.183 54.8128 123.009 54.8128 122.854C54.8514 122.661 54.8708 122.525 54.8708 122.448C54.7161 122.641 54.4454 122.931 54.0588 123.318C53.6721 123.666 53.1501 124.014 52.4928 124.362C51.8354 124.71 51.0428 125 50.1148 125.232C49.2254 125.503 48.1814 125.638 46.9828 125.638C45.0881 125.638 43.3481 125.29 41.7628 124.594C40.1774 123.898 38.8048 122.97 37.6448 121.81C36.4848 120.65 35.5761 119.316 34.9188 117.808C34.3001 116.261 33.9908 114.637 33.9908 112.936ZM39.6168 112.588C39.6168 113.671 39.7908 114.676 40.1388 115.604C40.5254 116.532 41.0474 117.344 41.7048 118.04C42.4008 118.697 43.2128 119.219 44.1408 119.606C45.0688 119.993 46.0934 120.186 47.2148 120.186C48.3361 120.186 49.3608 119.993 50.2888 119.606C51.2168 119.219 52.0094 118.678 52.6668 117.982C53.3628 117.286 53.8848 116.474 54.2328 115.546C54.6194 114.618 54.8128 113.632 54.8128 112.588C54.8128 111.544 54.6194 110.577 54.2328 109.688C53.8848 108.76 53.3628 107.967 52.6668 107.31C52.0094 106.653 51.2168 106.131 50.2888 105.744C49.3608 105.357 48.3361 105.164 47.2148 105.164C46.0934 105.164 45.0688 105.357 44.1408 105.744C43.2128 106.092 42.4008 106.614 41.7048 107.31C41.0474 107.967 40.5254 108.76 40.1388 109.688C39.7908 110.577 39.6168 111.544 39.6168 112.588ZM77.1355 126.45C74.8155 122.081 72.6115 117.75 70.5235 113.458C68.4355 109.127 66.2895 104.758 64.0855 100.35H70.1175C71.5868 103.211 72.7275 105.512 73.5395 107.252C74.3902 108.992 75.0475 110.403 75.5115 111.486C75.9755 112.569 76.3042 113.439 76.4975 114.096C76.7295 114.715 76.9422 115.372 77.1355 116.068C77.3675 115.372 77.5802 114.715 77.7735 114.096C78.0055 113.439 78.3535 112.569 78.8175 111.486C79.2815 110.403 79.9195 108.992 80.7315 107.252C81.5822 105.512 82.7422 103.211 84.2115 100.35H90.1855C87.9815 104.758 85.8162 109.127 83.6895 113.458C81.5628 117.75 79.3782 122.081 77.1355 126.45ZM114.047 122.158C112.848 123.241 111.398 124.091 109.697 124.71C107.996 125.329 106.256 125.638 104.477 125.638C102.66 125.638 100.939 125.309 99.3151 124.652C97.7297 123.956 96.3377 123.028 95.1391 121.868C93.9791 120.669 93.0511 119.297 92.3551 117.75C91.6591 116.165 91.3111 114.483 91.3111 112.704C91.3111 110.925 91.6591 109.263 92.3551 107.716C93.0511 106.131 93.9791 104.758 95.1391 103.598C96.3377 102.399 97.7104 101.471 99.2571 100.814C100.842 100.118 102.505 99.77 104.245 99.77C107.029 99.77 109.465 100.621 111.553 102.322C113.68 103.985 115.188 106.189 116.077 108.934C114.917 109.359 113.564 109.881 112.017 110.5C110.509 111.08 108.924 111.699 107.261 112.356C105.598 113.013 103.936 113.69 102.273 114.386C100.61 115.043 99.0831 115.643 97.6911 116.184C98.3484 117.383 99.2571 118.349 100.417 119.084C101.577 119.819 102.892 120.186 104.361 120.186C105.366 120.186 106.372 120.012 107.377 119.664C108.421 119.277 109.272 118.775 109.929 118.156L114.047 122.158ZM109.175 107.658C108.711 106.807 108.015 106.189 107.087 105.802C106.159 105.377 105.25 105.164 104.361 105.164C103.317 105.164 102.331 105.377 101.403 105.802C100.475 106.189 99.6824 106.73 99.0251 107.426C98.3677 108.083 97.8457 108.857 97.4591 109.746C97.0724 110.597 96.8791 111.486 96.8791 112.414V112.646C97.8457 112.259 98.8704 111.853 99.9531 111.428C101.074 110.964 102.176 110.5 103.259 110.036C104.38 109.572 105.444 109.147 106.449 108.76C107.454 108.335 108.363 107.967 109.175 107.658ZM160.225 113.98C160.225 105.918 153.613 103.482 147.929 101.452V91.65C149.959 92.114 151.293 93.332 151.699 95.42C151.815 96.29 152.279 96.696 153.091 96.696H158.195C159.065 96.696 159.587 96.232 159.529 95.304C158.891 88.17 153.787 84.458 147.929 83.762V79.76C147.929 79.006 147.523 78.6 146.769 78.6H145.145C144.391 78.6 143.985 79.006 143.985 79.76V83.762C137.779 84.342 132.327 88.286 132.327 95.362C132.327 103.308 138.475 105.976 143.985 107.948V117.866C141.491 117.344 139.983 116.01 139.635 113.864C139.461 112.936 139.055 112.53 138.185 112.53H132.965C132.095 112.53 131.573 112.994 131.631 113.922C132.211 121.23 137.489 125 143.985 125.696V129.64C143.985 130.394 144.391 130.8 145.145 130.8H146.769C147.523 130.8 147.929 130.394 147.929 129.64V125.754C154.541 125.174 160.225 121.23 160.225 113.98ZM140.331 95.362C140.331 93.448 141.607 92.056 143.985 91.592V99.886C141.781 98.842 140.331 97.508 140.331 95.362ZM147.929 117.924V109.398C150.481 110.5 152.279 111.776 152.279 113.98C152.279 116.01 150.713 117.518 147.929 117.924ZM178.317 99.19H173.793L174.315 91.882H189.105C189.975 91.882 190.497 91.418 190.497 90.548V85.792C190.497 84.922 189.975 84.4 189.105 84.4H168.167C167.355 84.4 166.833 84.922 166.775 85.734L165.325 105.57C165.267 106.44 165.789 106.962 166.659 106.962H177.853C182.087 106.962 184.407 109.224 184.407 112.53C184.407 115.778 182.087 118.04 177.853 118.04C174.315 118.04 171.995 116.416 171.473 113.806C171.299 112.936 170.893 112.53 170.081 112.53H164.803C163.933 112.53 163.353 112.994 163.411 113.922C164.165 121.694 170.661 125.812 177.853 125.812C185.509 125.812 192.353 121.23 192.353 112.53C192.353 103.772 185.973 99.19 178.317 99.19ZM211.774 125.812C222.098 125.812 228.014 117.228 228.014 104.7C228.014 92.172 222.098 83.646 211.774 83.646C201.392 83.646 195.534 92.172 195.534 104.7C195.534 117.228 201.392 125.812 211.774 125.812ZM211.774 118.04C206.322 118.04 203.48 113.284 203.48 104.7C203.48 96.116 206.322 91.418 211.774 91.418C217.168 91.418 220.01 96.116 220.01 104.7C220.01 113.284 217.168 118.04 211.774 118.04ZM236.069 111.37H239.491C240.303 111.37 240.825 111.022 240.883 110.21L242.275 96V85.792C242.275 84.922 241.753 84.4 240.883 84.4H234.677C233.749 84.4 233.285 84.922 233.285 85.792V96L234.677 110.21C234.735 111.022 235.257 111.37 236.069 111.37ZM235.025 125H240.535C241.405 125 241.927 124.536 241.927 123.666V118.156C241.927 117.228 241.405 116.764 240.535 116.764H235.025C234.155 116.764 233.633 117.228 233.633 118.156V123.666C233.633 124.536 234.155 125 235.025 125Z" fill="#446381"/>
</svg>
